<svg xmlns="http://www.w3.org/2000/svg" viewBox="0 0 10 3.8776"><defs><style>.a{fill:#2d2828;}</style></defs><title>captcha</title><path class="a" d="M.7881,1.9368c-.0244.0146-.0547.043-.0771.06a.86.86,0,0,1-.4248.2061.2.2,0,0,1-.082-.0176.3646.3646,0,0,1-.1982-.3213.3123.3123,0,0,1,.0068-.0615A.4964.4964,0,0,1,.4971,1.46a.3339.3339,0,0,1,.17.04.0308.0308,0,0,1,.0156.0283c0,.0625-.1328.1963-.2441.2422a1.0019,1.0019,0,0,1-.2861.07v.0225c0,.084.0605.2031.1563.2031a.9219.9219,0,0,0,.38-.2168c.0176-.0322.04-.0723.0771-.0723a.0668.0668,0,0,1,.0381.0137.0749.0749,0,0,1,.0352.0615A.1105.1105,0,0,1,.7881,1.9368ZM.4814,1.59a.3518.3518,0,0,0-.1465.0361.4716.4716,0,0,0-.124.0859A.85.85,0,0,0,.37,1.67a.3769.3769,0,0,0,.123-.08Z"/><path class="a" d="M1.83,2.1282a.0882.0882,0,0,1-.0723.0332.0632.0632,0,0,1-.0605-.0352A.3107.3107,0,0,1,1.68,1.9915c0-.0986.01-.2227.01-.3145,0-.06-.0049-.1279-.0264-.1279a3.0373,3.0373,0,0,0-.2559.5967c-.0176.0684-.04.0947-.0684.0947H1.3281c-.0791-.02-.0752-.0791-.0771-.1416-.002-.0947-.002-.4092-.0176-.4883-.002-.0107-.0049-.0156-.0117-.0176-.0166,0-.0371.06-.0723.1367a1.19,1.19,0,0,0-.1084.3955c0,.0117,0,.0264.001.0381a.0571.0571,0,0,1,.002.0176.0463.0463,0,0,1-.0264.042.0994.0994,0,0,1-.0557.0146.078.078,0,0,1-.0674-.0283.1638.1638,0,0,1-.01-.07c0-.11.0293-.3086.0293-.4365a.4764.4764,0,0,0-.002-.0547c-.001-.0127-.0029-.03-.0029-.0459A.0982.0982,0,0,1,.918,1.555a.0771.0771,0,0,1,.0645-.0371.0854.0854,0,0,1,.0859.0723c.042-.0762.12-.1934.165-.1934a.1408.1408,0,0,1,.1035.0723,1.12,1.12,0,0,1,.042.335c.07-.1406.1982-.39.2949-.4053h.0088c.0566,0,.1182.0791.1279.1172a1.5982,1.5982,0,0,1,.0166.2861c0,.07-.0039.1426-.0039.2158,0,.0244.0156.0508.0156.0791A.0545.0545,0,0,1,1.83,2.1282Z"/><path class="a" d="M2.2646,2.1194a.94.94,0,0,0-.0918.0859.0668.0668,0,0,1-.0557.0322.0749.0749,0,0,1-.0723-.0762.0783.0783,0,0,1-.0566-.0361c-.001-.0059-.0029-.05-.0029-.1123a3.4891,3.4891,0,0,1,.0205-.3916.073.073,0,0,1-.0244-.0527.0976.0976,0,0,1,.0508-.0771,1.6581,1.6581,0,0,0,.0508-.3369.4467.4467,0,0,0-.0137-.07V1.0735c0-.0439.0264-.0684.0566-.0684.0449,0,.1016.0508.1016.16a1.5816,1.5816,0,0,1-.0527.3c.082.002.3018.0225.374.1914a.1272.1272,0,0,1,.01.0508C2.5586,1.848,2.3574,2.0374,2.2646,2.1194Zm.1436-.4277c-.0225-.0527-.126-.0859-.2266-.0859H2.15a1.3269,1.3269,0,0,0-.03.291c0,.0566.0039.1123.0088.1689.083-.0654.2842-.2393.2842-.3457A.086.086,0,0,0,2.4082,1.6917Z"/><path class="a" d="M3.3818,1.9368c-.0244.0146-.0547.043-.0771.06a.86.86,0,0,1-.4248.2061.2.2,0,0,1-.082-.0176A.3646.3646,0,0,1,2.6,1.8636a.3123.3123,0,0,1,.0068-.0615A.4964.4964,0,0,1,3.0908,1.46a.3339.3339,0,0,1,.17.04.0308.0308,0,0,1,.0156.0283c0,.0625-.1328.1963-.2441.2422a1.0019,1.0019,0,0,1-.2861.07v.0225c0,.084.0605.2031.1563.2031a.9219.9219,0,0,0,.38-.2168c.0176-.0322.04-.0723.0771-.0723a.0668.0668,0,0,1,.0381.0137.0749.0749,0,0,1,.0352.0615A.1105.1105,0,0,1,3.3818,1.9368ZM3.0752,1.59a.3518.3518,0,0,0-.1465.0361.4716.4716,0,0,0-.124.0859.85.85,0,0,0,.1592-.042.3769.3769,0,0,0,.123-.08Z"/><path class="a" d="M4.29,1.1155c-.0107.0283-.0625.457-.0771.7061.0547.0156.0752.042.0752.0684,0,.0381-.042.0791-.1035.1V2.014c0,.0605-.0088.1582-.0537.1582-.0566,0-.0859-.0459-.0947-.1a.9276.9276,0,0,1-.4023.1475.1673.1673,0,0,1-.1475-.0654.23.23,0,0,1-.0469-.1416.547.547,0,0,1,.4336-.46.2419.2419,0,0,1,.0264.0029.2506.2506,0,0,1,.1836.13c.02-.1572.0566-.5068.0566-.5664V1.1126a.3107.3107,0,0,1-.0088-.0664c0-.0586.0273-.0811.0615-.0811a.1133.1133,0,0,1,.1045.11A.0937.0937,0,0,1,4.29,1.1155ZM3.8906,1.69a.0838.0838,0,0,0-.0215-.002c-.126,0-.2861.2178-.2861.332a.075.075,0,0,0,.0156.0488.0629.0629,0,0,0,.0508.02,1.04,1.04,0,0,0,.3623-.17C4.0029,1.8655,3.9746,1.7073,3.8906,1.69Z"/><path class="a" d="M5.97,1.8792a1.5446,1.5446,0,0,1-.709.3174.2417.2417,0,0,1-.1982-.084.1783.1783,0,0,1-.0371-.1143.6917.6917,0,0,1,.416-.5176.3216.3216,0,0,1,.04-.0029c.0586,0,.083.0264.083.0576a.1434.1434,0,0,1-.0664.1016.0622.0622,0,0,1-.0371.0107c-.0176,0-.0352-.0049-.0479-.0049l-.01.001a.4792.4792,0,0,0-.2324.3389c0,.0527.0283.09.1025.09a.8026.8026,0,0,0,.3154-.1006c.1-.0469.2822-.1592.2969-.165A.07.07,0,0,1,5.91,1.804a.0634.0634,0,0,1,.06.0645Z"/><path class="a" d="M6.3838,2.181a.0427.0427,0,0,1-.0352.0156.0735.0735,0,0,1-.0645-.042A.4532.4532,0,0,1,6.08,2.221a.135.135,0,0,1-.1064-.042.1552.1552,0,0,1-.042-.1123.302.302,0,0,1,.2451-.2861.1637.1637,0,0,1,.1406.1035.456.456,0,0,0,.0068-.0781.3909.3909,0,0,0-.0459-.1807.0983.0983,0,0,0-.0908-.0586.1249.1249,0,0,0-.0947.041.0364.0364,0,0,1-.04.0293.0666.0666,0,0,1-.07-.06L5.98,1.5726c0-.0791.1191-.1357.2227-.1357a.1989.1989,0,0,1,.1006.0234.3734.3734,0,0,1,.1592.3418A1.0325,1.0325,0,0,1,6.3838,2.181Zm-.209-.2627a.1334.1334,0,0,0-.1064.0957.1762.1762,0,0,0-.0107.05c0,.0244.0127.0332.0313.0332a.37.37,0,0,0,.1563-.0752C6.2334,1.9886,6.2012,1.9183,6.1748,1.9183Z"/><path class="a" d="M6.7734,2.2142a.07.07,0,0,1-.02.002.0745.0745,0,0,1-.0371-.0088,3,3,0,0,0-.0176.3252V2.639c0,.125.0039.1963.0049.2a.0816.0816,0,0,1,.0107.042.069.069,0,0,1-.0645.0752l-.0215-.001a.0974.0974,0,0,1-.0684-.0947.0887.0887,0,0,1,.0107-.0439c-.0088-.1025-.0127-.2061-.0127-.3076,0-.0459,0-.0889.002-.1318A6.6429,6.6429,0,0,1,6.64,1.6126c-.0332-.02-.0479-.04-.0479-.0615,0-.0527.083-.1035.1563-.1035a.3877.3877,0,0,1,.3652.33l.002.0117C7.1152,1.9544,6.8066,2.2073,6.7734,2.2142Zm.0313-.6152c-.0312.1543-.0527.3066-.0723.4629a.48.48,0,0,0,.2285-.2734V1.7737A.2134.2134,0,0,0,6.8047,1.5989Z"/><path class="a" d="M7.8535,1.511c-.0225,0-.0469-.0059-.0615-.0059a1.0416,1.0416,0,0,0-.24.0342,4.3855,4.3855,0,0,0-.0381.4834.632.632,0,0,0,.0068.1094.1014.1014,0,0,1,.0049.0332.06.06,0,0,1-.0625.0664.1046.1046,0,0,1-.1006-.11V2.1126c.0039-.0752,0-.1807.02-.3525.0107-.0986.0176-.1387.0225-.1895a.4566.4566,0,0,0-.1787.0908.07.07,0,0,1-.0371.0146l-.01-.002a.0828.0828,0,0,1-.0742-.0752.0733.0733,0,0,1,.0313-.06,1.2,1.2,0,0,1,.292-.1162c.0068-.04.0244-.1582.0381-.3057V1.1058c0-.0176-.002-.041-.002-.0635,0-.0459.0088-.09.0654-.09.0615,0,.0791.0723.0791.1582a1.9292,1.9292,0,0,1-.0352.2861A1.04,1.04,0,0,1,7.75,1.3812c.0234,0,.0479.002.0742.0029.0684.0039.0977.0391.0977.07S7.8975,1.511,7.8535,1.511Z"/><path class="a" d="M8.7109,1.8792a1.5446,1.5446,0,0,1-.709.3174.2417.2417,0,0,1-.1982-.084.1783.1783,0,0,1-.0371-.1143.6917.6917,0,0,1,.416-.5176.3216.3216,0,0,1,.04-.0029c.0586,0,.083.0264.083.0576a.1434.1434,0,0,1-.0664.1016.0622.0622,0,0,1-.0371.0107c-.0176,0-.0352-.0049-.0479-.0049l-.0107.001a.4809.4809,0,0,0-.2314.3389c0,.0527.0283.09.1025.09A.8026.8026,0,0,0,8.33,1.972c.1-.0469.2822-.1592.2969-.165a.07.07,0,0,1,.0244-.0029.0634.0634,0,0,1,.06.0645Z"/><path class="a" d="M9.3418,2.0569v.0137c0,.0264.0029.0488.0029.0723-.002.0361-.0225.0576-.0664.0576-.07,0-.084-.0547-.084-.1084l.001-.043c.0039-.0449.0107-.1309.0107-.2139,0-.0967-.0088-.1895-.0361-.207a.0629.0629,0,0,0-.0234-.0049c-.0889,0-.2686.1943-.3125.2891a.49.49,0,0,0-.04.1982V2.139a.0766.0766,0,0,1,.002.0215c0,.0752-.0459.11-.09.11a.0787.0787,0,0,1-.0771-.083A.124.124,0,0,1,8.64,2.1351a.1673.1673,0,0,0,.0176-.08c.0088-.2041.0117-.3965.0332-.6006.0156-.14.02-.2471.0264-.3174.0088-.09.0371-.1279.0732-.1279a.0762.0762,0,0,1,.0811.0879.0731.0731,0,0,1-.002.0205c-.0029.0527-.0225.1357-.0332.251-.0117.1191-.0225.2393-.0293.36.0781-.09.2383-.251.3682-.251a.1185.1185,0,0,1,.0469.0068c.1006.0371.125.2441.125.43C9.3467,1.9632,9.3447,2.013,9.3418,2.0569Z"/><path class="a" d="M9.88,2.181a.0427.0427,0,0,1-.0352.0156.0735.0735,0,0,1-.0645-.042.4532.4532,0,0,1-.2041.0664A.135.135,0,0,1,9.47,2.179a.1552.1552,0,0,1-.042-.1123.302.302,0,0,1,.2451-.2861.1637.1637,0,0,1,.1406.1035A.456.456,0,0,0,9.82,1.806a.3909.3909,0,0,0-.0459-.1807.0983.0983,0,0,0-.0908-.0586.1249.1249,0,0,0-.0947.041.0364.0364,0,0,1-.04.0293.0666.0666,0,0,1-.07-.06l-.002-.0049c0-.0791.1191-.1357.2227-.1357A.1989.1989,0,0,1,9.8,1.46a.3734.3734,0,0,1,.1592.3418A1.0325,1.0325,0,0,1,9.88,2.181Zm-.209-.2627a.1334.1334,0,0,0-.1064.0957.1762.1762,0,0,0-.0107.05c0,.0244.0127.0332.0313.0332a.37.37,0,0,0,.1563-.0752C9.7295,1.9886,9.6973,1.9183,9.6709,1.9183Z"/></svg>