<svg xmlns="http://www.w3.org/2000/svg" viewBox="0 0 128 128"><defs><style>.a{fill:#6c6b86;}.a,.b,.d{stroke:#000;stroke-miterlimit:10;stroke-width:2px;}.b{fill:#e0ffe8;}.c,.d{fill:#fff;}</style></defs><title>favicon</title><path class="a" d="M124.5,64c-8.6223,15.98-27.9544,27.1207-50.4028,27.1207S32.3168,79.98,23.6945,64c8.6223-15.98,27.9544-27.1207,50.4028-27.1207S115.8777,48.02,124.5,64Z"/><path d="M118.1983,53.9607c-1.5337,1.3907-.541,1.1347-2.0747,2.5254a13.2021,13.2021,0,0,1-2.786,2.0991,10.5379,10.5379,0,0,1-2.4235.8581c-4.2856,1.0053-8.9853.1093-13.0245-1.3587s-7.6853-3.49-11.7427-4.93a44.4635,44.4635,0,0,0-14.8883-2.48l.11-.0108a32.29,32.29,0,0,0,4.01-.4849,63.37,63.37,0,0,0,23.6041-9.02Z"/><path class="b" d="M29.5776,64A26.0585,26.0585,0,0,1,3.5,37.9224,26.0585,26.0585,0,0,1,29.5776,64Z"/><path class="b" d="M29.5776,64A26.0585,26.0585,0,0,1,3.5,37.9224,26.0585,26.0585,0,0,1,29.5776,64Z"/><path class="b" d="M29.5776,65.0431A26.0585,26.0585,0,0,0,3.5,91.1207,26.0585,26.0585,0,0,0,29.5776,65.0431Z"/><path class="b" d="M29.5776,65.0431A26.0585,26.0585,0,0,0,3.5,91.1207,26.0585,26.0585,0,0,0,29.5776,65.0431Z"/><ellipse class="c" cx="105.1073" cy="51.4828" rx="6.8754" ry="7.3017"/><ellipse class="d" cx="105.1073" cy="51.4828" rx="1.5127" ry="2.0862"/><path class="b" d="M82.0062,61.8856c-9.8142,12.367-21.403,16.65-25.9174,9.58C65.903,59.0983,77.4918,54.8148,82.0062,61.8856Z"/><path class="b" d="M82.0062,61.8856c-9.8142,12.367-21.403,16.65-25.9174,9.58C65.903,59.0983,77.4918,54.8148,82.0062,61.8856Z"/></svg>