<svg xmlns="http://www.w3.org/2000/svg" viewBox="0 0 25.7895 10"><defs><style>.a{fill:#2d2828;}</style></defs><title>http</title><path class="a" d="M5.9035,5.4722v.0562c0,.105.0137.1963.0137.2871-.0068.147-.0908.231-.2666.231-.2793,0-.3359-.2168-.3359-.4341,0-.0562.0068-.1191.0068-.168.0146-.1821.042-.5254.042-.8545,0-.3853-.0342-.7563-.1465-.8267a.2.2,0,0,0-.0908-.021c-.3574,0-1.0723.7773-1.2471,1.1558a1.9717,1.9717,0,0,0-.1611.7915v.1118a.3506.3506,0,0,1,.0068.084c0,.3013-.1816.4414-.3574.4414A.3116.3116,0,0,1,3.06,5.9976a.4843.4843,0,0,1,.042-.21.6781.6781,0,0,0,.07-.3223c.0342-.8125.0488-1.583.1328-2.3955.0625-.56.0771-.9873.1045-1.2676.0352-.3569.1475-.5112.2949-.5112a.3053.3053,0,0,1,.3223.35.3046.3046,0,0,1-.0078.084c-.0137.21-.0908.54-.1328,1.0015-.0488.4766-.0908.9526-.1191,1.436.3154-.3574.9531-1.0015,1.4707-1.0015a.5369.5369,0,0,1,.1895.0278c.3994.147.4971.9736.4971,1.7158C5.924,5.1011,5.9172,5.2974,5.9035,5.4722Z"/><path class="a" d="M9.0256,3.2939c-.0908,0-.1895-.021-.2451-.021a4.2709,4.2709,0,0,0-.96.1333,17.259,17.259,0,0,0-.1543,1.9331,2.3883,2.3883,0,0,0,.0283.4341.4533.4533,0,0,1,.0215.1333.2431.2431,0,0,1-.2529.2661.4182.4182,0,0,1-.3984-.4414V5.6963c.0137-.3013,0-.7212.0771-1.4077.042-.3921.0693-.5532.0908-.7563a1.8217,1.8217,0,0,0-.7148.3643.2714.2714,0,0,1-.1465.0562.0834.0834,0,0,1-.042-.0073.33.33,0,0,1-.2949-.3013.2911.2911,0,0,1,.127-.2378,4.9062,4.9062,0,0,1,1.1621-.4624c.0283-.1611.0977-.63.1543-1.2187V1.6763c0-.07-.0068-.1611-.0068-.252,0-.1821.0352-.3574.2588-.3574.2451,0,.3154.2871.3154.63a7.538,7.538,0,0,1-.1406,1.1416,4.286,4.286,0,0,1,.708-.063c.0908,0,.1885.0068.2939.0142.2734.0137.3926.1538.3926.28C9.299,3.189,9.2,3.2939,9.0256,3.2939Z"/><path class="a" d="M11.174,3.3013a3.8092,3.8092,0,0,0-.8125.105,17.259,17.259,0,0,0-.1543,1.9331,2.3883,2.3883,0,0,0,.0283.4341.4533.4533,0,0,1,.0215.1333.2431.2431,0,0,1-.2529.2661.4182.4182,0,0,1-.3984-.4414V5.6963c.0137-.3013,0-.7212.0771-1.4077.042-.3921.0693-.5532.0908-.7563a1.8217,1.8217,0,0,0-.7148.3643.2714.2714,0,0,1-.1465.0562.0834.0834,0,0,1-.042-.0073.33.33,0,0,1-.2949-.3013.2911.2911,0,0,1,.127-.2378,4.9062,4.9062,0,0,1,1.1621-.4624c.0283-.1611.0977-.63.1543-1.2187V1.6763c0-.07-.0068-.1611-.0068-.252,0-.1821.0352-.3574.2588-.3574.2451,0,.3154.2871.3154.63a7.538,7.538,0,0,1-.1406,1.1416,4.9044,4.9044,0,0,1,.792-.07,4.52,4.52,0,0,1,.5322.0278.4071.4071,0,0,1,.2734-.1333.3687.3687,0,0,1,.084.0142.3761.3761,0,0,1,.2236.2939,2.2231,2.2231,0,0,1,.5889.3574,1.5459,1.5459,0,0,1,.56,1.03c0,.0137.0068.0347.0068.0488,0,.6582-1.2324,1.667-1.3652,1.6948a.2949.2949,0,0,1-.0771.0068.3284.3284,0,0,1-.1475-.0347A11.9331,11.9331,0,0,0,11.8469,7.37v.4272c0,.4976.0137.7847.0205.7988a.3471.3471,0,0,1,.042.168.278.278,0,0,1-.2588.3013.3223.3223,0,0,1-.084-.0073.383.383,0,0,1-.2734-.3779.3567.3567,0,0,1,.042-.1753c-.0352-.4062-.0488-.8193-.0488-1.2256,0-.1821,0-.3574.0068-.5254.07-1.3726.2168-2.2271.3643-3.397A2.298,2.298,0,0,0,11.174,3.3013Zm1.0859.2661c-.126.6162-.2031,1.3027-.28,1.9258a1.91,1.91,0,0,0,.91-1.0923V4.3447A.96.96,0,0,0,12.26,3.5674Z"/><path class="a" d="M14.6379,6.5928H14.61a.3108.3108,0,0,1-.3291-.2661.28.28,0,0,1,.0635-.168c.084-.126.98-.3994.9736-.5605-.0352-.21-1.4707-.231-1.5693-1.1626a.7786.7786,0,0,1-.0068-.126c0-.7354.6934-1.3237,1.2471-1.7578a.5175.5175,0,0,1,.3428-.1123c.28,0,.5605.1685.5811.3223v.0352a.2211.2211,0,0,1-.252.2241.5461.5461,0,0,1-.2451-.0562c-.21.0068-.5605.42-.7217.5605a1.12,1.12,0,0,0-.3916.7842.1584.1584,0,0,0,.0068.0562c.1123.6792,1.52.3853,1.6318,1.2676C15.9406,5.9907,14.9318,6.5576,14.6379,6.5928Z"/><path class="a" d="M16.8352,6.25h-.042c-.1611-.0278-.2871-.07-.2871-.3569,0-.2241.0352-.3994.28-.4624a.3217.3217,0,0,1,.0771-.0068c.2168,0,.2871.2451.2871.3989C17.1506,5.9834,17.0383,6.25,16.8352,6.25Zm.0215-2.36c-.1963,0-.2939-.2451-.2939-.4341,0-.252.0762-.4692.3291-.4834.2031,0,.2939.2031.2939.3853C17.1858,3.7,17.0666,3.8892,16.8567,3.8892Z"/><path class="a" d="M20.4631,1.3188a.6241.6241,0,0,1-.1895.3643,1.2955,1.2955,0,0,0-.252.3574,25.6378,25.6378,0,0,0-1.87,4.7905,2.6931,2.6931,0,0,0-.0693.5322c-.0146.2383-.1475.3433-.28.3433a.3373.3373,0,0,1-.3223-.35.4212.4212,0,0,1,.0137-.0981A11.9435,11.9435,0,0,1,18.215,4.8,29.0743,29.0743,0,0,1,19.7414,1.312c.0771-.147.1895-.3359.3926-.3433a.3032.3032,0,0,1,.3359.2944A.177.177,0,0,1,20.4631,1.3188Z"/><path class="a" d="M22.9621,1.3188a.6241.6241,0,0,1-.1895.3643,1.2955,1.2955,0,0,0-.252.3574,25.6378,25.6378,0,0,0-1.87,4.7905,2.6931,2.6931,0,0,0-.0693.5322c-.0146.2383-.1475.3433-.28.3433a.3373.3373,0,0,1-.3223-.35.4212.4212,0,0,1,.0137-.0981A11.9435,11.9435,0,0,1,20.7141,4.8,29.0743,29.0743,0,0,1,22.24,1.312c.0771-.147.1895-.3359.3926-.3433a.3032.3032,0,0,1,.3359.2944A.177.177,0,0,1,22.9621,1.3188Z"/></svg>