<svg xmlns="http://www.w3.org/2000/svg" viewBox="0 0 25.7895 10"><defs><style>.a{fill:#2d2828;}</style></defs><title>password</title><path class="a" d="M2.2453,6.1025a.2986.2986,0,0,1-.0771.0068.3192.3192,0,0,1-.1475-.0352A11.623,11.623,0,0,0,1.95,7.37v.4268c0,.498.0146.7852.0215.7988a.3485.3485,0,0,1,.042.168.2782.2782,0,0,1-.2588.3018.3028.3028,0,0,1-.084-.0078A.3822.3822,0,0,1,1.3977,8.68a.3561.3561,0,0,1,.042-.1748c-.0352-.4062-.0488-.8193-.0488-1.2256,0-.1826,0-.3574.0068-.5254A26.2094,26.2094,0,0,1,1.7131,3.7c-.1338-.0771-.1895-.1611-.1895-.2451,0-.21.3291-.4131.623-.4131a1.5471,1.5471,0,0,1,1.457,1.3164c0,.0137.0068.0352.0068.0488C3.6106,5.0654,2.3781,6.0742,2.2453,6.1025Zm.126-2.459c-.126.6172-.21,1.2266-.2871,1.85A1.91,1.91,0,0,0,2.9943,4.4V4.3447A.86.86,0,0,0,2.3713,3.6436Z"/><path class="a" d="M5.5988,5.97a.1764.1764,0,0,1-.1406.0625.2954.2954,0,0,1-.2588-.168,1.7955,1.7955,0,0,1-.8125.2656.5556.5556,0,0,1-.4277-.168.6327.6327,0,0,1-.168-.4482,1.2038,1.2038,0,0,1,.98-1.1416.6474.6474,0,0,1,.5605.4131,2.0511,2.0511,0,0,0,.0283-.3145,1.5575,1.5575,0,0,0-.1826-.7217.3929.3929,0,0,0-.3643-.2314.4972.4972,0,0,0-.3779.1611.144.144,0,0,1-.1611.1191.2681.2681,0,0,1-.28-.2383c0-.0068-.0068-.0137-.0068-.0205,0-.3154.4766-.5391.89-.5391a.8145.8145,0,0,1,.3994.0908,1.49,1.49,0,0,1,.6367,1.3652A4.1513,4.1513,0,0,1,5.5988,5.97Zm-.834-1.0508a.5383.5383,0,0,0-.4268.3848.6494.6494,0,0,0-.042.1963c0,.0977.0488.1328.126.1328a1.4843,1.4843,0,0,0,.623-.3008C4.9963,5.1992,4.87,4.9189,4.7649,4.9189Z"/><path class="a" d="M7.2424,6.5928H7.2141a.3112.3112,0,0,1-.3291-.2666.2822.2822,0,0,1,.0635-.168c.084-.126.98-.3994.9736-.5605-.0352-.21-1.4707-.23-1.5693-1.1621a.7786.7786,0,0,1-.0068-.126c0-.7354.6934-1.3242,1.2471-1.7578a.5175.5175,0,0,1,.3428-.1123c.28,0,.5605.168.5811.3223v.0352a.2208.2208,0,0,1-.252.2236A.5459.5459,0,0,1,8.02,2.9648c-.21.0068-.5605.42-.7207.5605a1.1174,1.1174,0,0,0-.3926.7842.1558.1558,0,0,0,.0068.0557c.1123.68,1.52.3857,1.6318,1.2676C8.5451,5.99,7.5363,6.5576,7.2424,6.5928Z"/><path class="a" d="M9.7209,6.5928H9.6926a.3112.3112,0,0,1-.3291-.2666.2822.2822,0,0,1,.0635-.168c.084-.126.98-.3994.9736-.5605-.0352-.21-1.4707-.23-1.5693-1.1621a.7786.7786,0,0,1-.0068-.126c0-.7354.6934-1.3242,1.2471-1.7578a.5175.5175,0,0,1,.3428-.1123c.28,0,.5605.168.5811.3223v.0352a.2208.2208,0,0,1-.252.2236.5459.5459,0,0,1-.2451-.0557c-.21.0068-.5605.42-.7207.5605A1.1174,1.1174,0,0,0,9.385,4.31a.1558.1558,0,0,0,.0068.0557c.1123.68,1.52.3857,1.6318,1.2676C11.0236,5.99,10.0149,6.5576,9.7209,6.5928Z"/><path class="a" d="M16.2121,3.6934c-.3223.2871-1.667,2.332-1.8916,2.3877-.0137,0-.042.0068-.07.0068-.1182,0-.2939-.0342-.3359-.1113a12.5811,12.5811,0,0,1-.5605-1.9609,4.5954,4.5954,0,0,0-.6787.9307c-.1406.2666-.3857,1.1279-.8125,1.1279-.1748,0-.28-.1543-.3086-.4619-.0205-.2383-.0137-.5889-.0352-1.0371-.0068-.1191-.0693-.6865-.0693-.9316a.343.343,0,0,1,.0137-.1045.2835.2835,0,0,1,.28-.1963.348.348,0,0,1,.3506.3086,4.2541,4.2541,0,0,1,.0205.5107v.5674a4.877,4.877,0,0,1,.4971-.7354,7.4138,7.4138,0,0,0,.5537-.63.3858.3858,0,0,1,.3154-.126.4909.4909,0,0,1,.2588.0625,4.5153,4.5153,0,0,1,.28,1.002,7.3518,7.3518,0,0,0,.2588.9307c.3779-.4482,1.4082-1.7783,1.415-1.82.0625-.1826.1611-.3926.3643-.3926a.4619.4619,0,0,1,.1748.042.2818.2818,0,0,1,.1895.252A.5509.5509,0,0,1,16.2121,3.6934Z"/><path class="a" d="M16.9172,6.0459a.5781.5781,0,0,1-.2949-.0693,1.203,1.203,0,0,1-.5244-1.0439,1.3879,1.3879,0,0,1,.1191-.5674c.3779-.8477.7773-1.2256,1.19-1.2539h.0352A1.1,1.1,0,0,1,18.45,4.1484a1.3021,1.3021,0,0,1,.0146.2383A1.715,1.715,0,0,1,16.9172,6.0459Zm.9385-2.0937c-.07-.1543-.1123-.2314-.2734-.2734-.1191.0283-.6094.2031-.8965,1.0225a.7174.7174,0,0,0-.0283.2246c0,.2383.0918.4971.26.5605a.2391.2391,0,0,0,.0693.0068,1.15,1.15,0,0,0,.7637-.5469,1.3963,1.3963,0,0,0,.1826-.6367A.8288.8288,0,0,0,17.8557,3.9521Z"/><path class="a" d="M21.51,3.5674a.2525.2525,0,0,1-.0635.0068c-.0977,0-.168-.0566-.2588-.0566a.2787.2787,0,0,0-.127.042,4.7675,4.7675,0,0,0-1.3369,1.4854c-.2246.3359-.1338.84-.2529.9873a.2734.2734,0,0,1-.23.1123.3886.3886,0,0,1-.2734-.1123.3152.3152,0,0,1-.084-.2451,1.2644,1.2644,0,0,1,.0215-.2168,6.4115,6.4115,0,0,0,.1182-1.19,3.1175,3.1175,0,0,0-.1533-1.0371.2521.2521,0,0,1-.0146-.0771c0-.14.1611-.2451.3223-.2451a.3472.3472,0,0,1,.2246.084c.1328.126.168.3291.168.7148,0,.23.0068.3574.0068.5107a6.2544,6.2544,0,0,1,1.2188-1.2109.8786.8786,0,0,1,.4482-.127.9569.9569,0,0,1,.3291.0566.36.36,0,0,1,.1611.2871C21.7336,3.4268,21.6779,3.5254,21.51,3.5674Z"/><path class="a" d="M24.4709,1.7178c-.042.1123-.252,1.8213-.3076,2.8154.2168.0635.3008.168.3008.2734,0,.1543-.168.3154-.4131.3994v.0977c0,.2383-.0352.6309-.2168.6309-.2246,0-.3437-.1826-.3789-.3994a3.6639,3.6639,0,0,1-1.6035.5879.67.67,0,0,1-.5879-.2588.9165.9165,0,0,1-.1895-.5674,2.1865,2.1865,0,0,1,1.7295-1.835.5574.5574,0,0,1,.1055.0137.986.986,0,0,1,.7354.5186c.0771-.63.2236-2.0244.2236-2.2617V1.7041a1.4312,1.4312,0,0,1-.0342-.2666c0-.23.1113-.3223.2451-.3223a.4558.4558,0,0,1,.42.4414A.4222.4222,0,0,1,24.4709,1.7178Zm-1.5967,2.29a.3486.3486,0,0,0-.084-.0068c-.5039,0-1.1416.8691-1.1416,1.3242a.2892.2892,0,0,0,.0635.1963.2537.2537,0,0,0,.2031.0762,4.1315,4.1315,0,0,0,1.4424-.6787C23.3225,4.709,23.21,4.0781,22.8742,4.0078Z"/></svg>